# xmcd CD database file
#
# Track frame offsets:
#	150
#	14521
#	29212
#	45106
#	60021
#	72523
#	87733
#	103776
#	118017
#	133694
#	148518
#	162769
#	176789
#	192788
#	207501
#	221119
#	236437
#	251409
#	263494
#	277405
#
# Disc length: 3917 seconds
#
# Revision: 0
# Processed by: cddbd v1.5.2PL0 Copyright (c) Steve Scherf et al.
# Submitted via: CDex 1.70beta2
#
DISCID=2f0f4b14
DTITLE=Various Artist - NU COUNTRY TRAXX 191
DYEAR=2015
DGENRE=Country
TTITLE0=Wild Child - Kenny Chesney with Grace Potter
TTITLE1=Sippin' On Fire - Florida Georgia Line
TTITLE2=Little Toy Guns - Carrie Underwood
TTITLE3=Like A Wrecking Ball - Eric Church
TTITLE4=Turn It On - Eli Young Band
TTITLE5=I Remember You - Trisha Yearwood
TTITLE6=Hangover Tonight - Gary Allan
TTITLE7=Folks Like Us - Montgomery Gentry
TTITLE8=On To Something Good - Ashley Monroe
TTITLE9=Doin' Country Right - David Fanning
TTITLE10=On Your Lips - John King
TTITLE11=Nothin' Like You - Dan and Shay
TTITLE12=Make You Mine - High Valley
TTITLE13=Country - Mo Pitney
TTITLE14=Kiss You In The Morning - Michael Ray
TTITLE15=What We Weren't Looking For - David James
TTITLE16=God Bless A Country Girl - The Lacs
TTITLE17=It Feels Good - Drake White
TTITLE18=Stilettos - Genevieve Fisher
TTITLE19=Wake You With a Kiss - Aaron Pritchett
EXTD=YEAR: 2015
EXTT0=
EXTT1=
EXTT2=
EXTT3=
EXTT4=
EXTT5=
EXTT6=
EXTT7=
EXTT8=
EXTT9=
EXTT10=
EXTT11=
EXTT12=
EXTT13=
EXTT14=
EXTT15=
EXTT16=
EXTT17=
EXTT18=
EXTT19=
PLAYORDER=
